<svg width="200.000000" height="200.000000" viewBox="0 0 200 200" fill="none" xmlns="http://www.w3.org/2000/svg" xmlns:xlink="http://www.w3.org/1999/xlink">
	<desc>
			Created with Pixso.
	</desc>
	<defs/>
	<path id="[Linked] Ellipse 94" d="M188.4 99.99C188.4 148.85 148.82 188.45 100 188.45C51.18 188.45 11.6 148.85 11.6 99.99C11.6 51.14 51.18 11.54 100 11.54C148.82 11.54 188.4 51.14 188.4 99.99Z" fill="#D9D9D9" fill-opacity="0" fill-rule="nonzero"/>
	<path id="[Copy] Видео о компании «ЭКОЛОМ» Видео о компании «ЭКОЛОМ»" d="M193.69 104.96L193.89 101.73L182.49 101.02L182.25 104.95Q182.18 106.16 182.49 107.07Q182.74 107.79 183.22 108.27Q183.35 108.4 183.5 108.52L183.5 108.52Q184.2 109.05 185.25 109.12Q186.11 109.17 186.7 108.88Q186.97 108.74 187.19 108.54Q187.44 108.32 187.63 108.03Q187.97 107.47 188.14 106.73L188.21 106.73Q188.3 107.45 188.62 107.95Q188.79 108.24 189.03 108.45Q189.21 108.62 189.44 108.74Q189.95 109.03 190.61 109.07Q191.69 109.14 192.36 108.65Q192.65 108.44 192.86 108.13Q193.56 107.09 193.69 104.96ZM188.79 104.94L188.92 102.75L192.68 102.98L192.56 104.95Q192.47 106.44 192 107.09Q191.85 107.29 191.66 107.43Q191.23 107.73 190.55 107.69Q189.79 107.64 189.35 107.25Q189.24 107.15 189.15 107.03Q188.69 106.42 188.79 104.94ZM183.54 102.42L187.81 102.68L187.67 104.94Q187.6 106 187.32 106.62Q187.03 107.24 186.55 107.49Q186.08 107.75 185.43 107.71Q184.68 107.66 184.18 107.29Q184 107.15 183.86 106.98Q183.3 106.31 183.4 104.79L183.54 102.42Z" fill="#105720" fill-opacity="1.000000" fill-rule="evenodd"/>
	<path id="[Copy] Видео о компании «ЭКОЛОМ» Видео о компании «ЭКОЛОМ»" d="M184.58 113.41L189.87 114.44L190.1 113.22L181.7 111.59L181.39 113.16L187.62 119.11Q187.41 119.07 187.04 118.98Q186.68 118.89 186.29 118.81Q185.91 118.73 185.67 118.68L180.51 117.67L180.28 118.86L188.69 120.5L188.99 118.94L182.76 112.96Q182.92 113.01 183.16 113.07Q183.41 113.13 183.68 113.2Q183.95 113.27 184.19 113.32Q184.43 113.38 184.58 113.41Z" fill="#105720" fill-opacity="1.000000" fill-rule="evenodd"/>
	<path id="[Copy] Видео о компании «ЭКОЛОМ» Видео о компании «ЭКОЛОМ»" d="M178.66 128.22L185.75 130.53L187.12 126.3Q186.35 126.04 185.61 125.7Q185.12 125.47 184.64 125.22Q183.45 124.57 182.45 123.73Q181.45 122.9 180.71 121.88L180.92 121.25L177.05 119.99L176.67 121.17L179.49 122.09L177.62 127.85L174.8 126.94L174.41 128.14L178.28 129.39L178.66 128.22ZM185.79 127.08L185.16 129.01L179.04 127.03L180.29 123.17Q180.88 123.96 181.76 124.7Q182.64 125.44 183.68 126.05Q184.72 126.66 185.79 127.08Z" fill="#105720" fill-opacity="1.000000" fill-rule="evenodd"/>
	<path id="[Copy] Видео о компании «ЭКОЛОМ» Видео о компании «ЭКОЛОМ»" d="M181.74 139.27Q182.5 138.75 182.95 137.76Q183.37 136.83 183.3 135.94Q183.3 135.83 183.28 135.72Q183.25 135.52 183.2 135.33Q182.99 134.55 182.4 133.88Q181.67 133.03 180.41 132.46Q179.13 131.88 178.03 131.94Q177.32 131.97 176.72 132.25Q176.39 132.4 176.09 132.62Q175.25 133.25 174.74 134.37Q174.38 135.16 174.24 135.8Q174.1 136.43 174.09 137.14L175.13 137.61Q175.15 136.88 175.27 136.25Q175.39 135.62 175.73 134.88Q176.17 133.91 176.91 133.51Q177.09 133.41 177.29 133.34Q178.31 133.01 179.69 133.61L177.25 139L177.98 139.33Q179.04 139.81 180.01 139.79Q180.63 139.78 181.18 139.56Q181.47 139.45 181.74 139.27ZM182.21 136.06Q182.28 136.66 181.99 137.31Q181.69 137.97 181.2 138.27Q181.09 138.33 180.97 138.38Q180.57 138.55 180.08 138.53Q179.46 138.5 178.76 138.19L180.63 134.06Q181.69 134.67 182.06 135.52Q182.17 135.78 182.21 136.06Z" fill="#105720" fill-opacity="1.000000" fill-rule="evenodd"/>
	<path id="[Copy] Видео о компании «ЭКОЛОМ» Видео о компании «ЭКОЛОМ»" d="M171.05 146.48Q171.61 147.14 172.52 147.69Q173.72 148.41 174.82 148.5Q175.62 148.56 176.31 148.32Q176.57 148.24 176.82 148.1Q176.86 148.08 176.9 148.06Q177.74 147.57 178.32 146.62Q178.95 145.56 178.96 144.53Q178.97 144.22 178.91 143.91Q178.79 143.22 178.37 142.59Q177.77 141.67 176.56 140.95Q175.66 140.4 174.8 140.22Q173.95 140.04 173.19 140.19Q172.83 140.26 172.51 140.4Q172.14 140.56 171.81 140.8Q171.18 141.26 170.74 142Q170.27 142.79 170.15 143.57Q170.07 144.07 170.14 144.55Q170.17 144.82 170.25 145.08Q170.48 145.82 171.05 146.48ZM174.2 141.41Q174.99 141.57 175.87 142.1Q177.21 142.91 177.65 143.89Q177.76 144.15 177.8 144.42Q177.91 145.18 177.4 146.03Q176.93 146.8 176.29 147.08Q176.19 147.12 176.09 147.16Q175.53 147.34 174.87 147.21Q174.09 147.06 173.21 146.53Q172.33 146 171.82 145.38Q171.38 144.84 171.28 144.25Q171.26 144.15 171.25 144.05Q171.19 143.34 171.65 142.58Q172.11 141.81 172.76 141.53Q172.84 141.5 172.93 141.47Q173.51 141.28 174.2 141.41Z" fill="#105720" fill-opacity="1.000000" fill-rule="evenodd"/>
	<path id="[Copy] Видео о компании «ЭКОЛОМ» Видео о компании «ЭКОЛОМ»" d="" fill="#105720" fill-opacity="1.000000" fill-rule="evenodd"/>
	<path id="[Copy] Видео о компании «ЭКОЛОМ» Видео о компании «ЭКОЛОМ»" d="M162.45 157.52Q162.9 158.26 163.7 158.95Q164.77 159.86 165.84 160.12Q166.62 160.32 167.34 160.2Q167.61 160.15 167.87 160.06Q167.92 160.05 167.96 160.03Q168.88 159.69 169.6 158.84Q170.4 157.91 170.58 156.89Q170.63 156.58 170.63 156.27Q170.62 155.57 170.31 154.88Q169.87 153.88 168.8 152.96Q167.99 152.28 167.18 151.96Q166.36 151.64 165.59 151.66Q165.23 151.68 164.88 151.76Q164.5 151.86 164.13 152.04Q163.44 152.39 162.88 153.04Q162.28 153.75 162.04 154.5Q161.88 154.98 161.87 155.46Q161.86 155.74 161.89 156.01Q161.99 156.77 162.45 157.52ZM166.39 153.03Q167.14 153.32 167.93 153.99Q169.12 155 169.39 156.05Q169.46 156.32 169.45 156.59Q169.43 157.36 168.79 158.11Q168.2 158.8 167.52 158.97Q167.42 159 167.31 159.01Q166.73 159.1 166.1 158.86Q165.35 158.59 164.57 157.92Q163.79 157.26 163.39 156.56Q163.05 155.96 163.04 155.36Q163.04 155.25 163.05 155.15Q163.1 154.44 163.68 153.77Q164.26 153.08 164.95 152.92Q165.04 152.89 165.13 152.88Q165.73 152.79 166.39 153.03Z" fill="#105720" fill-opacity="1.000000" fill-rule="evenodd"/>
	<path id="[Copy] Видео о компании «ЭКОЛОМ» Видео о компании «ЭКОЛОМ»" d="" fill="#105720" fill-opacity="1.000000" fill-rule="evenodd"/>
	<path id="[Copy] Видео о компании «ЭКОЛОМ» Видео о компании «ЭКОЛОМ»" d="M156.71 171.23L157.79 170.3L157.88 164.74L160.59 167.9L161.58 167.05L156 160.55L155.01 161.4L157.84 164.7L152.06 163.93L150.91 164.93L156.82 165.69L156.71 171.23Z" fill="#105720" fill-opacity="1.000000" fill-rule="evenodd"/>
	<path id="[Copy] Видео о компании «ЭКОЛОМ» Видео о компании «ЭКОЛОМ»" d="M144.79 172.15Q145.03 172.99 145.62 173.86Q146.41 175.02 147.37 175.56Q148.07 175.96 148.8 176.04Q149.07 176.06 149.35 176.05Q149.39 176.04 149.44 176.04Q150.41 175.96 151.34 175.33Q152.35 174.64 152.79 173.71Q152.93 173.42 153.01 173.12Q153.19 172.45 153.08 171.7Q152.92 170.61 152.13 169.45Q151.53 168.58 150.84 168.05Q150.13 167.52 149.38 167.34Q149.03 167.26 148.67 167.25Q148.28 167.24 147.87 167.32Q147.11 167.47 146.4 167.95Q145.64 168.47 145.21 169.13Q144.93 169.55 144.78 170.01Q144.7 170.27 144.66 170.55Q144.56 171.31 144.79 172.15ZM149.78 168.88Q150.44 169.35 151.02 170.2Q151.89 171.5 151.87 172.58Q151.87 172.86 151.79 173.11Q151.57 173.85 150.75 174.41Q150 174.91 149.3 174.9Q149.19 174.9 149.09 174.88Q148.5 174.81 147.96 174.42Q147.31 173.95 146.74 173.11Q146.16 172.25 145.96 171.47Q145.79 170.81 145.94 170.22Q145.97 170.12 146 170.03Q146.25 169.36 146.98 168.86Q147.73 168.36 148.43 168.38Q148.52 168.38 148.61 168.39Q149.22 168.46 149.78 168.88Z" fill="#105720" fill-opacity="1.000000" fill-rule="evenodd"/>
	<path id="[Copy] Видео о компании «ЭКОЛОМ» Видео о компании «ЭКОЛОМ»" d="M133.23 175.59L137.09 183.23L138.64 182.45L137.99 174.94L143.61 179.94L145.16 179.16L141.31 171.51L140.26 172.04L142.75 176.98Q142.92 177.33 143.09 177.64Q143.26 177.96 143.45 178.27L143.4 178.29L137.78 173.29L136.8 173.79L137.41 181.31L137.36 181.33Q137.23 181 137.09 180.67Q136.95 180.35 136.79 180.04L134.28 175.06L133.23 175.59Z" fill="#105720" fill-opacity="1.000000" fill-rule="evenodd"/>
	<path id="[Copy] Видео о компании «ЭКОЛОМ» Видео о компании «ЭКОЛОМ»" d="M123.99 178.97L126.82 187.06L133.58 184.69L130.76 176.61L129.53 177.04L131.98 184.06L127.68 185.57L125.22 178.54L123.99 178.97Z" fill="#105720" fill-opacity="1.000000" fill-rule="evenodd"/>
	<path id="[Copy] Видео о компании «ЭКОЛОМ» Видео о компании «ЭКОЛОМ»" d="M117.98 188.71Q118.86 189.21 120.35 188.87Q121.16 188.68 121.84 188.31Q122.52 187.93 123.02 187.51L122.41 186.64Q121.94 187.03 121.39 187.35L121.39 187.35Q120.84 187.68 120.18 187.83Q119.37 188.02 118.81 187.72Q118.79 187.71 118.77 187.7Q118.21 187.37 117.96 186.29L117.84 185.78L119.27 185.39Q121.28 184.86 122.11 183.96Q122.49 183.56 122.64 183.08Q122.82 182.5 122.66 181.82Q122.47 180.99 122.01 180.52Q121.8 180.31 121.55 180.17Q121.25 180 120.89 179.93Q120.24 179.8 119.48 179.98Q118.76 180.14 118.29 180.41Q117.86 180.67 117.56 181.04Q117.54 181.06 117.52 181.08Q117.21 181.48 116.97 182.02L116.91 182.03L116.38 180.85L115.46 181.07L116.76 186.74Q117.1 188.21 117.98 188.71ZM118.91 184.54L117.65 184.89L117.48 184.12Q117.23 183.06 117.62 182.33Q117.68 182.21 117.76 182.11Q117.86 181.97 117.97 181.85Q118.52 181.28 119.44 181.07Q120.15 180.9 120.66 181.15Q120.76 181.19 120.84 181.25Q121.21 181.52 121.34 182.1Q121.45 182.56 121.33 182.95Q121.23 183.26 120.99 183.52Q120.46 184.12 118.91 184.54Z" fill="#105720" fill-opacity="1.000000" fill-rule="evenodd"/>
	<path id="[Copy] Видео о компании «ЭКОЛОМ» Видео о компании «ЭКОЛОМ»" d="M112.29 186.6L112.68 190.18L113.97 190.04L113.05 181.52L111.75 181.66L112.17 185.51L107.42 186.02L107.01 182.18L105.72 182.32L106.64 190.83L107.93 190.69L107.54 187.12L112.29 186.6Z" fill="#105720" fill-opacity="1.000000" fill-rule="evenodd"/>
	<path id="[Copy] Видео о компании «ЭКОЛОМ» Видео о компании «ЭКОЛОМ»" d="M100.79 185.67L100.66 191.05L101.9 191.08L102.09 182.52L100.49 182.48L95.67 189.62Q95.68 189.41 95.71 189.04Q95.73 188.66 95.75 188.27Q95.77 187.88 95.77 187.63L95.89 182.38L94.68 182.35L94.48 190.91L96.08 190.95L100.92 183.8Q100.9 183.96 100.88 184.22Q100.86 184.47 100.84 184.75Q100.82 185.02 100.8 185.27Q100.79 185.52 100.79 185.67Z" fill="#105720" fill-opacity="1.000000" fill-rule="evenodd"/>
	<path id="[Copy] Видео о компании «ЭКОЛОМ» Видео о компании «ЭКОЛОМ»" d="M89.73 185.07L88.91 190.39L90.13 190.58L91.44 182.12L89.86 181.88L84.14 188.33Q84.18 188.12 84.26 187.75Q84.33 187.37 84.4 186.99Q84.47 186.6 84.5 186.36L85.31 181.17L84.11 180.98L82.8 189.45L84.37 189.69L90.1 183.23Q90.06 183.39 90.01 183.64Q89.96 183.89 89.9 184.16Q89.85 184.44 89.8 184.68Q89.75 184.92 89.73 185.07Z" fill="#105720" fill-opacity="1.000000" fill-rule="evenodd"/>
	<path id="[Copy] Видео о компании «ЭКОЛОМ» Видео о компании «ЭКОЛОМ»" d="" fill="#105720" fill-opacity="1.000000" fill-rule="evenodd"/>
	<path id="[Copy] Видео о компании «ЭКОЛОМ» Видео о компании «ЭКОЛОМ»" d="M72.96 185.85L76.47 183.63L76.53 183.43L74.99 179.59L73.94 179.81L75.22 183.13L72.24 185.06L72.96 185.85ZM69.96 184.88L73.51 182.67L73.58 182.47L71.99 178.62L70.96 178.85L72.23 182.16L69.26 184.09L69.96 184.88Z" fill="#105720" fill-opacity="1.000000" fill-rule="evenodd"/>
	<path id="[Copy] Видео о компании «ЭКОЛОМ» Видео о компании «ЭКОЛОМ»" d="M64.8 185.83Q64.11 185.71 63.4 185.39Q62.61 185.03 62.08 184.5Q61.69 184.12 61.45 183.66Q61.36 183.49 61.29 183.3Q61.28 183.29 61.28 183.28Q61.02 182.62 61.04 181.86Q61.06 181.08 61.37 180.23L66.5 182.56L66.98 181.49L61.84 179.15Q62.3 178.21 62.89 177.59Q63.49 176.97 64.21 176.68Q64.3 176.64 64.39 176.61Q65.03 176.4 65.77 176.45Q66.61 176.52 67.57 176.95Q68.28 177.27 68.85 177.68Q69.43 178.09 69.96 178.53L70.43 177.48Q70.27 177.32 70.09 177.17Q69.74 176.87 69.35 176.61Q68.77 176.22 67.86 175.81Q66.19 175.05 64.77 175.22Q64.23 175.28 63.72 175.47Q62.92 175.77 62.24 176.37Q61.12 177.36 60.35 179.04Q59.84 180.18 59.71 181.26Q59.59 182.26 59.83 183.17Q59.85 183.24 59.87 183.31Q59.91 183.45 59.96 183.59Q60.27 184.4 60.91 185.08Q61.65 185.88 62.9 186.45Q63.71 186.82 64.54 187.01Q65.37 187.19 66.11 187.18L66.07 185.93Q65.48 185.94 64.8 185.83Z" fill="#105720" fill-opacity="1.000000" fill-rule="evenodd"/>
	<path id="[Copy] Видео о компании «ЭКОЛОМ» Видео о компании «ЭКОЛОМ»" d="M54.4 168.76L53.03 167.92L54.46 175.69L47.26 177.78L48.56 178.58L55.81 176.53L52.93 181.25L54.06 181.94L60.01 172.19L58.88 171.5L55.86 176.45L54.4 168.76Z" fill="#105720" fill-opacity="1.000000" fill-rule="evenodd"/>
	<path id="[Copy] Видео о компании «ЭКОЛОМ» Видео о компании «ЭКОЛОМ»" d="M42.36 163.65Q41.41 164.28 40.58 165.3Q39.45 166.69 39.08 168.09Q38.84 169.02 38.95 169.9Q39.01 170.35 39.16 170.79Q39.6 172.08 40.91 173.15Q42.29 174.27 43.66 174.45Q44.2 174.51 44.72 174.46Q45.53 174.36 46.32 173.96Q47.6 173.3 48.7 171.95Q49.54 170.92 49.97 169.88Q50.41 168.83 50.39 167.81Q50.39 167.55 50.36 167.3Q50.25 166.55 49.88 165.84Q49.38 164.89 48.35 164.05Q47.35 163.24 46.33 162.95Q45.61 162.74 44.9 162.77Q44.6 162.78 44.3 162.84Q43.3 163.03 42.36 163.65ZM48.9 168.84Q48.55 169.92 47.63 171.05Q46.71 172.18 45.72 172.73Q44.98 173.15 44.21 173.19Q43.96 173.21 43.71 173.18Q42.68 173.08 41.65 172.24Q40.48 171.29 40.25 170.14Q40.18 169.81 40.2 169.45Q40.27 167.9 41.67 166.19Q42.58 165.06 43.57 164.49Q44.34 164.05 45.13 164.01Q45.35 163.99 45.58 164.01Q46.6 164.1 47.63 164.94Q48.65 165.77 48.95 166.76Q49.02 166.99 49.05 167.22Q49.17 168 48.9 168.84Z" fill="#105720" fill-opacity="1.000000" fill-rule="evenodd"/>
	<path id="[Copy] Видео о компании «ЭКОЛОМ» Видео о компании «ЭКОЛОМ»" d="M37.66 153.97L36.77 152.99L28.35 160.71L32.49 165.23Q33.52 164.51 34.5 163.83Q35.48 163.15 36.34 162.56Q37.2 161.97 37.89 161.52Q38.58 161.06 39.04 160.78Q39.6 160.44 40.16 160.15Q40.72 159.86 41.21 159.81Q41.44 159.78 41.64 159.85Q41.85 159.93 42.02 160.11Q42.19 160.3 42.3 160.5Q42.41 160.7 42.47 160.89L43.3 160.13Q43.22 159.93 43.08 159.69Q42.98 159.54 42.88 159.4Q42.82 159.33 42.75 159.25Q42.21 158.67 41.59 158.57Q41.58 158.56 41.57 158.56Q40.94 158.47 40.17 158.76Q39.41 159.05 38.47 159.64Q37.9 159.98 37.19 160.46Q36.47 160.93 35.69 161.47Q34.9 162.01 34.11 162.56Q33.33 163.11 32.61 163.62L30.11 160.89L37.66 153.97Z" fill="#105720" fill-opacity="1.000000" fill-rule="evenodd"/>
	<path id="[Copy] Видео о компании «ЭКОЛОМ» Видео о компании «ЭКОЛОМ»" d="M26.37 144.18Q25.29 144.5 24.19 145.24Q22.71 146.24 21.95 147.47Q21.45 148.28 21.3 149.16Q21.22 149.61 21.24 150.07Q21.28 151.44 22.23 152.84Q23.22 154.32 24.48 154.88Q24.98 155.1 25.49 155.2Q26.3 155.35 27.17 155.19Q28.58 154.93 30.04 153.95Q31.13 153.22 31.85 152.34Q32.57 151.47 32.85 150.49Q32.93 150.24 32.97 149.99Q33.09 149.24 32.94 148.45Q32.74 147.4 31.99 146.3Q31.27 145.23 30.38 144.65Q29.75 144.25 29.06 144.07Q28.77 144 28.47 143.96Q27.46 143.85 26.37 144.18ZM31.12 151.04Q30.47 151.97 29.27 152.78Q28.06 153.6 26.95 153.84Q26.12 154.02 25.37 153.84Q25.13 153.78 24.89 153.69Q23.94 153.29 23.2 152.19Q22.35 150.93 22.47 149.77Q22.51 149.43 22.62 149.1Q23.14 147.63 24.97 146.4Q26.18 145.59 27.29 145.33Q28.15 145.13 28.92 145.32Q29.14 145.37 29.35 145.46Q30.3 145.84 31.04 146.94Q31.78 148.03 31.78 149.07Q31.78 149.3 31.74 149.53Q31.63 150.31 31.12 151.04Z" fill="#105720" fill-opacity="1.000000" fill-rule="evenodd"/>
	<path id="[Copy] Видео о компании «ЭКОЛОМ» Видео о компании «ЭКОЛОМ»" d="M17.93 143.03L25.52 135.33L25.06 134.34L14.27 135.02L14.25 134.96Q14.56 134.84 14.99 134.67Q15.41 134.51 15.88 134.31Q16.36 134.11 16.82 133.89L23.46 130.85L22.92 129.65L12.54 134.42L13.35 136.19L23.51 135.57L23.54 135.62L16.41 142.87L17.23 144.66L27.61 139.89L27.1 138.77L20.53 141.78Q20.02 142.02 19.54 142.26Q19.05 142.5 18.64 142.71Q18.23 142.92 17.95 143.09L17.93 143.03Z" fill="#105720" fill-opacity="1.000000" fill-rule="evenodd"/>
	<path id="[Copy] Видео о компании «ЭКОЛОМ» Видео о компании «ЭКОЛОМ»" d="M20.89 126.5L17.07 124.86L16.87 124.92L14.58 128.39L15.35 129.11L17.34 126.18L20.63 127.53L20.89 126.5ZM20 123.52L16.17 121.85L15.97 121.91L13.69 125.41L14.46 126.13L16.45 123.2L19.74 124.54L20 123.52Z" fill="#105720" fill-opacity="1.000000" fill-rule="evenodd"/>
	<path id="[Copy] Видео о компании «ЭКОЛОМ» Видео о компании «ЭКОЛОМ»" d="" fill="#105720" fill-opacity="1.000000" fill-rule="evenodd"/>
	<path id="[Copy] Видео о компании «ЭКОЛОМ» Видео о компании «ЭКОЛОМ»" d="" fill="#105720" fill-opacity="1.000000" fill-rule="evenodd"/>
	<path id="[Copy] Видео о компании «ЭКОЛОМ» Видео о компании «ЭКОЛОМ»" d="" fill="#105720" fill-opacity="1.000000" fill-rule="evenodd"/>
	<path id="[Copy] Видео о компании «ЭКОЛОМ» Видео о компании «ЭКОЛОМ»" d="" fill="#105720" fill-opacity="1.000000" fill-rule="evenodd"/>
	<path id="[Copy] Видео о компании «ЭКОЛОМ» Видео о компании «ЭКОЛОМ»" d="" fill="#105720" fill-opacity="1.000000" fill-rule="evenodd"/>
	<path id="[Copy] Видео о компании «ЭКОЛОМ» Видео о компании «ЭКОЛОМ»" d="M6.28 95.41L6.09 98.64L17.5 99.3L17.72 95.38Q17.79 94.16 17.47 93.25Q17.22 92.54 16.74 92.06Q16.61 91.93 16.46 91.81L16.46 91.81Q15.76 91.28 14.71 91.22Q13.84 91.17 13.26 91.47Q12.99 91.61 12.77 91.8Q12.52 92.03 12.34 92.32Q11.99 92.88 11.83 93.62L11.75 93.62Q11.66 92.9 11.35 92.4Q11.17 92.12 10.93 91.9Q10.74 91.74 10.52 91.61Q10.01 91.33 9.34 91.29Q8.27 91.23 7.6 91.72Q7.31 91.93 7.11 92.24Q6.4 93.28 6.28 95.41ZM11.19 95.42L11.06 97.6L7.3 97.38L7.41 95.42Q7.5 93.93 7.97 93.27Q8.11 93.07 8.3 92.94Q8.73 92.63 9.41 92.67Q10.17 92.71 10.61 93.11Q10.72 93.21 10.81 93.33Q11.27 93.93 11.19 95.42ZM16.44 97.91L12.18 97.67L12.31 95.41Q12.37 94.35 12.65 93.73Q12.93 93.11 13.41 92.85Q13.89 92.59 14.53 92.63Q15.28 92.67 15.78 93.05Q15.96 93.18 16.11 93.35Q16.67 94.02 16.58 95.54L16.44 97.91Z" fill="#105720" fill-opacity="1.000000" fill-rule="evenodd"/>
	<path id="[Copy] Видео о компании «ЭКОЛОМ» Видео о компании «ЭКОЛОМ»" d="M15.3 87.3L10.01 86.31L9.78 87.52L18.2 89.09L18.49 87.52L12.22 81.61Q12.43 81.66 12.79 81.74Q13.16 81.83 13.55 81.91Q13.93 81.99 14.18 82.03L19.34 83L19.56 81.81L11.14 80.23L10.85 81.8L17.13 87.73Q16.97 87.68 16.72 87.62Q16.47 87.56 16.2 87.5Q15.93 87.43 15.69 87.38Q15.45 87.33 15.3 87.3Z" fill="#105720" fill-opacity="1.000000" fill-rule="evenodd"/>
	<path id="[Copy] Видео о компании «ЭКОЛОМ» Видео о компании «ЭКОЛОМ»" d="M21.18 72.22L14.08 69.94L12.72 74.18Q13.5 74.43 14.24 74.77Q14.73 74.99 15.2 75.25Q16.39 75.89 17.4 76.73Q18.41 77.56 19.15 78.57L18.94 79.21L22.81 80.45L23.19 79.26L20.37 78.36L22.22 72.59L25.04 73.49L25.42 72.29L21.55 71.05L21.18 72.22ZM14.05 73.39L14.67 71.45L20.8 73.42L19.56 77.28Q18.98 76.49 18.09 75.76Q17.21 75.02 16.16 74.41Q15.12 73.8 14.05 73.39Z" fill="#105720" fill-opacity="1.000000" fill-rule="evenodd"/>
	<path id="[Copy] Видео о компании «ЭКОЛОМ» Видео о компании «ЭКОЛОМ»" d="M18.02 61.24Q17.26 61.75 16.81 62.75Q16.39 63.68 16.46 64.57Q16.47 64.68 16.49 64.79Q16.52 64.99 16.57 65.17Q16.78 65.95 17.37 66.63Q18.11 67.47 19.37 68.04Q20.66 68.62 21.76 68.55Q22.47 68.51 23.07 68.24Q23.39 68.08 23.69 67.86Q24.53 67.23 25.03 66.11Q25.39 65.31 25.53 64.68Q25.67 64.04 25.67 63.33L24.63 62.87Q24.62 63.6 24.5 64.23Q24.38 64.86 24.04 65.6Q23.61 66.57 22.86 66.98Q22.68 67.08 22.48 67.14Q21.47 67.48 20.08 66.89L22.51 61.49L21.77 61.16Q20.71 60.68 19.75 60.7Q19.12 60.72 18.58 60.94Q18.29 61.06 18.02 61.24ZM17.56 64.45Q17.48 63.85 17.77 63.2Q18.07 62.53 18.56 62.23Q18.67 62.17 18.79 62.12Q19.19 61.95 19.67 61.97Q20.3 62 21 62.3L19.14 66.44Q18.08 65.83 17.71 64.99Q17.6 64.72 17.56 64.45Z" fill="#105720" fill-opacity="1.000000" fill-rule="evenodd"/>
	<path id="[Copy] Видео о компании «ЭКОЛОМ» Видео о компании «ЭКОЛОМ»" d="M28.75 53.81Q28.18 53.15 27.28 52.61Q26.07 51.9 24.98 51.81Q24.18 51.75 23.48 51.99Q23.22 52.08 22.98 52.21Q22.94 52.23 22.9 52.26Q22.05 52.74 21.48 53.71Q20.85 54.76 20.84 55.79Q20.84 56.11 20.9 56.41Q21.02 57.1 21.44 57.73Q22.05 58.65 23.26 59.37Q24.16 59.91 25.02 60.09Q25.88 60.26 26.63 60.11Q26.99 60.04 27.31 59.9Q27.68 59.74 28.01 59.5Q28.63 59.04 29.07 58.3Q29.55 57.5 29.66 56.72Q29.74 56.22 29.67 55.74Q29.63 55.47 29.55 55.21Q29.32 54.47 28.75 53.81ZM25.62 58.89Q24.83 58.74 23.94 58.21Q22.6 57.41 22.16 56.43Q22.05 56.17 22.01 55.9Q21.9 55.14 22.4 54.29Q22.87 53.51 23.51 53.23Q23.61 53.19 23.71 53.16Q24.27 52.97 24.93 53.1Q25.71 53.24 26.59 53.77Q27.47 54.3 27.99 54.92Q28.42 55.45 28.53 56.04Q28.55 56.14 28.56 56.25Q28.62 56.95 28.16 57.72Q27.7 58.49 27.06 58.77Q26.97 58.8 26.89 58.83Q26.31 59.03 25.62 58.89Z" fill="#105720" fill-opacity="1.000000" fill-rule="evenodd"/>
	<path id="[Copy] Видео о компании «ЭКОЛОМ» Видео о компании «ЭКОЛОМ»" d="" fill="#105720" fill-opacity="1.000000" fill-rule="evenodd"/>
	<path id="[Copy] Видео о компании «ЭКОЛОМ» Видео о компании «ЭКОЛОМ»" d="M36.97 43.11Q36.51 42.37 35.7 41.69Q34.63 40.79 33.56 40.53Q32.78 40.34 32.06 40.47Q31.79 40.52 31.52 40.61Q31.48 40.62 31.44 40.64Q30.52 40.99 29.81 41.84Q29.02 42.78 28.85 43.8Q28.79 44.11 28.8 44.42Q28.81 45.12 29.12 45.81Q29.58 46.81 30.65 47.72Q31.46 48.39 32.28 48.71Q33.09 49.02 33.87 48.99Q34.23 48.98 34.57 48.89Q34.96 48.79 35.33 48.6Q36.02 48.25 36.57 47.59Q37.16 46.89 37.4 46.13Q37.55 45.65 37.56 45.17Q37.57 44.89 37.53 44.62Q37.43 43.86 36.97 43.11ZM33.06 47.63Q32.31 47.35 31.52 46.69Q30.32 45.68 30.04 44.64Q29.97 44.37 29.97 44.1Q29.99 43.33 30.62 42.57Q31.21 41.88 31.88 41.7Q31.99 41.67 32.09 41.66Q32.68 41.57 33.31 41.79Q34.06 42.06 34.84 42.72Q35.63 43.39 36.03 44.08Q36.38 44.68 36.39 45.28Q36.39 45.38 36.39 45.49Q36.33 46.19 35.76 46.87Q35.18 47.56 34.5 47.73Q34.41 47.76 34.32 47.77Q33.72 47.87 33.06 47.63Z" fill="#105720" fill-opacity="1.000000" fill-rule="evenodd"/>
	<path id="[Copy] Видео о компании «ЭКОЛОМ» Видео о компании «ЭКОЛОМ»" d="" fill="#105720" fill-opacity="1.000000" fill-rule="evenodd"/>
	<path id="[Copy] Видео о компании «ЭКОЛОМ» Видео о компании «ЭКОЛОМ»" d="M42.82 29.13L41.74 30.06L41.67 35.62L38.95 32.48L37.97 33.33L43.56 39.81L44.55 38.96L41.71 35.67L47.49 36.41L48.65 35.42L42.73 34.67L42.82 29.13Z" fill="#105720" fill-opacity="1.000000" fill-rule="evenodd"/>
	<path id="[Copy] Видео о компании «ЭКОЛОМ» Видео о компании «ЭКОЛОМ»" d="M54.44 28.33Q54.19 27.49 53.59 26.62Q52.8 25.47 51.84 24.94Q51.14 24.54 50.4 24.47Q50.13 24.45 49.85 24.47Q49.81 24.47 49.76 24.47Q48.79 24.56 47.87 25.2Q46.86 25.9 46.42 26.83Q46.29 27.12 46.21 27.42Q46.04 28.09 46.16 28.84Q46.32 29.93 47.12 31.09Q47.72 31.95 48.42 32.47Q49.13 32.99 49.88 33.17Q50.23 33.25 50.59 33.26Q50.99 33.27 51.39 33.19Q52.15 33.03 52.86 32.54Q53.62 32.02 54.05 31.35Q54.32 30.93 54.46 30.47Q54.54 30.21 54.58 29.93Q54.68 29.17 54.44 28.33ZM49.47 31.64Q48.81 31.17 48.23 30.32Q47.34 29.04 47.35 27.96Q47.36 27.68 47.43 27.42Q47.65 26.68 48.46 26.12Q49.21 25.6 49.91 25.61Q50.02 25.62 50.12 25.63Q50.71 25.7 51.26 26.08Q51.91 26.54 52.49 27.39Q53.07 28.24 53.28 29.02Q53.45 29.68 53.3 30.27Q53.28 30.36 53.24 30.46Q53 31.13 52.27 31.63Q51.53 32.14 50.83 32.13Q50.74 32.12 50.64 32.11Q50.04 32.05 49.47 31.64Z" fill="#105720" fill-opacity="1.000000" fill-rule="evenodd"/>
	<path id="[Copy] Видео о компании «ЭКОЛОМ» Видео о компании «ЭКОЛОМ»" d="M66.37 24.58L62.49 16.95L60.94 17.73L61.62 25.25L55.98 20.26L54.43 21.05L58.31 28.69L59.36 28.15L56.85 23.22Q56.67 22.87 56.5 22.56Q56.33 22.25 56.15 21.94L56.19 21.92L61.83 26.89L62.81 26.39L62.18 18.87L62.22 18.85Q62.35 19.18 62.5 19.51Q62.64 19.83 62.8 20.14L65.32 25.11L66.37 24.58Z" fill="#105720" fill-opacity="1.000000" fill-rule="evenodd"/>
	<path id="[Copy] Видео о компании «ЭКОЛОМ» Видео о компании «ЭКОЛОМ»" d="M75.08 21.32L72.19 13.25L65.44 15.67L68.32 23.74L69.55 23.3L67.04 16.29L71.34 14.75L73.85 21.76L75.08 21.32Z" fill="#105720" fill-opacity="1.000000" fill-rule="evenodd"/>
	<path id="[Copy] Видео о компании «ЭКОЛОМ» Видео о компании «ЭКОЛОМ»" d="M81.15 11.47Q80.27 10.97 78.78 11.32Q77.98 11.51 77.29 11.89Q76.61 12.26 76.12 12.68L76.73 13.55Q77.2 13.17 77.75 12.84L77.75 12.84Q78.3 12.51 78.95 12.35Q79.77 12.16 80.32 12.46Q80.34 12.47 80.36 12.48Q80.93 12.81 81.18 13.89L81.3 14.4L79.88 14.79Q77.87 15.33 77.04 16.23Q76.66 16.64 76.52 17.11Q76.34 17.69 76.5 18.38Q76.69 19.21 77.16 19.67Q77.37 19.88 77.62 20.02Q77.92 20.19 78.27 20.26Q78.93 20.39 79.69 20.21Q80.41 20.04 80.87 19.76Q81.31 19.51 81.61 19.14Q81.62 19.12 81.64 19.09Q81.95 18.7 82.19 18.16L82.25 18.14L82.78 19.32L83.7 19.1L82.38 13.44Q82.03 11.97 81.15 11.47ZM80.24 15.64L81.49 15.29L81.67 16.06Q81.92 17.12 81.54 17.85Q81.48 17.96 81.4 18.07Q81.3 18.21 81.19 18.33Q80.64 18.9 79.73 19.11Q79.01 19.28 78.5 19.04Q78.4 19 78.32 18.94Q77.95 18.67 77.82 18.09Q77.71 17.63 77.83 17.24Q77.92 16.93 78.16 16.67Q78.69 16.07 80.24 15.64Z" fill="#105720" fill-opacity="1.000000" fill-rule="evenodd"/>
	<path id="[Copy] Видео о компании «ЭКОЛОМ» Видео о компании «ЭКОЛОМ»" d="M86.94 13.48L86.54 9.91L85.24 10.05L86.2 18.56L87.49 18.42L87.06 14.57L91.81 14.04L92.24 17.88L93.53 17.74L92.57 9.23L91.28 9.38L91.68 12.95L86.94 13.48Z" fill="#105720" fill-opacity="1.000000" fill-rule="evenodd"/>
	<path id="[Copy] Видео о компании «ЭКОЛОМ» Видео о компании «ЭКОЛОМ»" d="M98.33 14.31L98.44 8.93L97.2 8.9L97.04 17.47L98.64 17.5L103.44 10.34Q103.42 10.55 103.4 10.93Q103.38 11.31 103.36 11.7Q103.35 12.09 103.34 12.34L103.24 17.59L104.45 17.61L104.62 9.05L103.02 9.02L98.21 16.18Q98.23 16.02 98.25 15.77Q98.26 15.51 98.29 15.24Q98.31 14.96 98.32 14.71Q98.33 14.47 98.33 14.31Z" fill="#105720" fill-opacity="1.000000" fill-rule="evenodd"/>
	<path id="[Copy] Видео о компании «ЭКОЛОМ» Видео о компании «ЭКОЛОМ»" d="M109.81 14.86L110.61 9.54L109.39 9.35L108.11 17.82L109.7 18.06L115.39 11.59Q115.35 11.79 115.27 12.16Q115.2 12.54 115.14 12.92Q115.07 13.31 115.03 13.55L114.25 18.75L115.44 18.93L116.72 10.46L115.15 10.22L109.44 16.7Q109.48 16.54 109.53 16.29Q109.58 16.04 109.64 15.77Q109.7 15.5 109.74 15.25Q109.79 15.01 109.81 14.86Z" fill="#105720" fill-opacity="1.000000" fill-rule="evenodd"/>
	<path id="[Copy] Видео о компании «ЭКОЛОМ» Видео о компании «ЭКОЛОМ»" d="" fill="#105720" fill-opacity="1.000000" fill-rule="evenodd"/>
	<path id="[Copy] Видео о компании «ЭКОЛОМ» Видео о компании «ЭКОЛОМ»" d="M126.61 14L123.1 16.23L123.04 16.43L124.6 20.27L125.65 20.04L124.35 16.73L127.33 14.79L126.61 14ZM129.61 14.96L126.06 17.18L126 17.38L127.6 21.23L128.63 21L127.35 17.69L130.31 15.74L129.61 14.96Z" fill="#105720" fill-opacity="1.000000" fill-rule="evenodd"/>
	<path id="[Copy] Видео о компании «ЭКОЛОМ» Видео о компании «ЭКОЛОМ»" d="M134.75 13.98Q135.43 14.09 136.15 14.41Q136.94 14.77 137.47 15.29Q137.86 15.68 138.1 16.14Q138.19 16.31 138.27 16.49Q138.27 16.5 138.27 16.51Q138.53 17.17 138.52 17.93Q138.5 18.71 138.19 19.57L133.06 17.25L132.58 18.32L137.73 20.64Q137.28 21.59 136.68 22.21Q136.09 22.83 135.37 23.13Q135.28 23.16 135.19 23.19Q134.54 23.41 133.81 23.36Q132.96 23.29 132.01 22.87Q131.3 22.54 130.72 22.14Q130.15 21.73 129.62 21.29L129.14 22.35Q129.31 22.51 129.49 22.66Q129.84 22.96 130.23 23.22Q130.81 23.6 131.72 24.01Q133.39 24.76 134.81 24.59Q135.36 24.52 135.86 24.33Q136.66 24.03 137.34 23.42Q138.46 22.43 139.21 20.74Q139.72 19.61 139.85 18.53Q139.97 17.53 139.73 16.62Q139.71 16.55 139.68 16.48Q139.64 16.33 139.59 16.2Q139.28 15.39 138.64 14.71Q137.89 13.91 136.64 13.35Q135.83 12.99 135 12.8Q134.17 12.61 133.43 12.63L133.47 13.88Q134.06 13.87 134.75 13.98Z" fill="#105720" fill-opacity="1.000000" fill-rule="evenodd"/>
	<path id="[Copy] Видео о компании «ЭКОЛОМ» Видео о компании «ЭКОЛОМ»" d="M145 30.86L146.38 31.69L144.91 23.93L152.11 21.81L150.8 21.02L143.56 23.1L146.43 18.36L145.29 17.68L139.38 27.45L140.51 28.14L143.51 23.18L145 30.86Z" fill="#105720" fill-opacity="1.000000" fill-rule="evenodd"/>
	<path id="[Copy] Видео о компании «ЭКОЛОМ» Видео о компании «ЭКОЛОМ»" d="M157.17 35.93Q158.11 35.3 158.94 34.27Q160.06 32.88 160.43 31.48Q160.67 30.56 160.55 29.67Q160.49 29.23 160.34 28.79Q159.9 27.49 158.58 26.43Q157.2 25.31 155.83 25.14Q155.29 25.08 154.77 25.14Q153.95 25.23 153.17 25.64Q151.89 26.3 150.79 27.66Q149.96 28.69 149.53 29.74Q149.1 30.79 149.12 31.81Q149.12 32.06 149.16 32.32Q149.26 33.06 149.64 33.77Q150.14 34.72 151.17 35.56Q152.17 36.37 153.2 36.65Q153.92 36.86 154.63 36.82Q154.93 36.81 155.23 36.75Q156.23 36.56 157.17 35.93ZM150.61 30.77Q150.96 29.68 151.87 28.55Q152.79 27.42 153.77 26.86Q154.51 26.45 155.28 26.4Q155.53 26.38 155.78 26.41Q156.81 26.5 157.84 27.34Q159.02 28.29 159.25 29.44Q159.32 29.77 159.31 30.12Q159.24 31.68 157.85 33.4Q156.94 34.53 155.96 35.1Q155.19 35.54 154.39 35.59Q154.17 35.6 153.95 35.58Q152.93 35.5 151.89 34.66Q150.87 33.83 150.57 32.85Q150.5 32.62 150.46 32.39Q150.34 31.61 150.61 30.77Z" fill="#105720" fill-opacity="1.000000" fill-rule="evenodd"/>
	<path id="[Copy] Видео о компании «ЭКОЛОМ» Видео о компании «ЭКОЛОМ»" d="M161.89 45.53L162.8 46.51L171.19 38.76L167.02 34.24Q166 34.98 165.02 35.66Q164.05 36.34 163.19 36.94Q162.33 37.53 161.64 37.98Q160.95 38.44 160.49 38.72Q159.94 39.06 159.38 39.35Q158.81 39.64 158.33 39.7Q158.1 39.73 157.9 39.66Q157.69 39.58 157.51 39.4Q157.34 39.22 157.23 39.01Q157.12 38.81 157.06 38.63L156.24 39.39Q156.32 39.59 156.46 39.82Q156.55 39.98 156.66 40.11Q156.72 40.19 156.79 40.26Q157.33 40.85 157.95 40.95Q157.96 40.95 157.97 40.95Q158.6 41.04 159.37 40.75Q160.13 40.45 161.07 39.86Q161.64 39.51 162.35 39.04Q163.06 38.56 163.84 38.02Q164.63 37.48 165.41 36.92Q166.2 36.37 166.91 35.85L169.42 38.58L161.89 45.53Z" fill="#105720" fill-opacity="1.000000" fill-rule="evenodd"/>
	<path id="[Copy] Видео о компании «ЭКОЛОМ» Видео о компании «ЭКОЛОМ»" d="M173.19 55.13Q174.27 54.79 175.36 54.05Q176.84 53.04 177.59 51.8Q178.09 50.98 178.23 50.1Q178.3 49.66 178.28 49.2Q178.23 47.83 177.27 46.43Q176.27 44.96 175 44.41Q174.51 44.19 173.99 44.1Q173.18 43.96 172.32 44.12Q170.9 44.39 169.46 45.38Q168.37 46.12 167.65 47Q166.94 47.88 166.66 48.86Q166.59 49.11 166.56 49.37Q166.44 50.11 166.6 50.9Q166.81 51.95 167.56 53.05Q168.28 54.11 169.18 54.68Q169.81 55.08 170.5 55.25Q170.79 55.32 171.09 55.35Q172.11 55.46 173.19 55.13ZM168.39 48.3Q169.03 47.36 170.23 46.54Q171.44 45.71 172.54 45.47Q173.37 45.28 174.12 45.45Q174.37 45.51 174.6 45.61Q175.56 45.99 176.31 47.09Q177.16 48.34 177.05 49.5Q177.02 49.84 176.91 50.18Q176.4 51.65 174.57 52.89Q173.38 53.71 172.27 53.98Q171.41 54.18 170.63 54Q170.42 53.95 170.21 53.87Q169.25 53.5 168.5 52.4Q167.76 51.31 167.75 50.28Q167.75 50.04 167.78 49.81Q167.89 49.03 168.39 48.3Z" fill="#105720" fill-opacity="1.000000" fill-rule="evenodd"/>
	<path id="[Copy] Видео о компании «ЭКОЛОМ» Видео о компании «ЭКОЛОМ»" d="M181.82 56.48L174.26 64.21L174.71 65.2L185.5 64.48L185.53 64.54Q185.21 64.66 184.79 64.83Q184.36 65 183.89 65.2Q183.42 65.4 182.96 65.61L176.33 68.69L176.88 69.88L187.24 65.08L186.42 63.3L176.26 63.97L176.24 63.92L183.34 56.64L182.51 54.85L172.15 59.65L172.67 60.77L179.22 57.74Q179.73 57.5 180.21 57.26Q180.7 57.02 181.11 56.8Q181.51 56.59 181.79 56.42L181.82 56.48Z" fill="#105720" fill-opacity="1.000000" fill-rule="evenodd"/>
	<path id="[Copy] Видео о компании «ЭКОЛОМ» Видео о компании «ЭКОЛОМ»" d="M178.87 72.8L182.7 74.42L182.9 74.35L185.16 70.86L184.39 70.15L182.42 73.09L179.12 71.77L178.87 72.8ZM179.79 75.77L183.62 77.41L183.83 77.35L186.08 73.83L185.3 73.12L183.33 76.07L180.03 74.75L179.79 75.77Z" fill="#105720" fill-opacity="1.000000" fill-rule="evenodd"/>
	<rect id="play" rx="-0.500000" width="31.000000" height="31.000000" transform="translate(84.500000 84.500000)" fill="#FFFFFF" fill-opacity="0"/>
</svg>
