<svg width="16.000000" height="18.000000" viewBox="0 0 16 18" fill="none" xmlns="http://www.w3.org/2000/svg" xmlns:xlink="http://www.w3.org/1999/xlink">
	<desc>
			Created with Pixso.
	</desc>
	<defs/>
	<path id="Icon" d="M9.77 0L6.22 0C4.57 0 2.99 0.66 1.82 1.84C0.65 3.02 0 4.62 0 6.3L0 9C0 10.19 0.33 11.36 0.96 12.36C1.59 13.37 2.49 14.18 3.55 14.69L3.55 17.7C3.55 17.76 3.57 17.81 3.6 17.86C3.64 17.91 3.68 17.95 3.74 17.97C3.79 17.99 3.85 18 3.9 17.99C3.96 17.98 4.01 17.95 4.06 17.91L6.64 15.3L9.77 15.3C11.42 15.3 13 14.63 14.17 13.45C15.34 12.27 16 10.67 16 9L16 6.3C16 4.62 15.34 3.02 14.17 1.84C13 0.66 11.42 0 9.77 0ZM12.1 11.8L11.21 12.7C10.27 13.64 7.8 12.57 5.62 10.32C3.44 8.07 2.48 5.54 3.4 4.6L4.28 3.7C4.46 3.54 4.68 3.46 4.92 3.46C5.15 3.46 5.38 3.55 5.55 3.71L6.85 5.06C6.95 5.17 7.02 5.3 7.06 5.45C7.1 5.59 7.1 5.75 7.07 5.89C7.03 6.04 6.96 6.17 6.86 6.28C6.76 6.39 6.63 6.47 6.49 6.52C6.28 6.59 6.11 6.73 6 6.92C5.89 7.11 5.86 7.34 5.92 7.56C6.14 8.55 7.39 9.81 8.33 10.05C8.54 10.1 8.76 10.07 8.95 9.97C9.14 9.87 9.29 9.7 9.36 9.49C9.41 9.35 9.5 9.22 9.61 9.12C9.72 9.02 9.86 8.95 10 8.92C10.15 8.89 10.3 8.9 10.44 8.94C10.59 8.99 10.72 9.07 10.82 9.18L12.11 10.53C12.27 10.7 12.36 10.93 12.35 11.17C12.35 11.4 12.26 11.63 12.1 11.8ZM8.8 4.27C8.72 4.27 8.63 4.28 8.54 4.29C8.5 4.29 8.46 4.29 8.42 4.28C8.39 4.26 8.35 4.25 8.32 4.22C8.29 4.2 8.27 4.17 8.25 4.13C8.23 4.1 8.22 4.06 8.21 4.02C8.21 3.98 8.21 3.94 8.22 3.9C8.23 3.87 8.25 3.83 8.28 3.8C8.3 3.77 8.33 3.74 8.36 3.72C8.4 3.71 8.44 3.69 8.48 3.69C8.58 3.68 8.69 3.67 8.8 3.67C9.59 3.67 10.34 3.99 10.9 4.55C11.46 5.11 11.77 5.87 11.77 6.67C11.77 6.78 11.77 6.89 11.75 7C11.75 7.04 11.74 7.08 11.72 7.12C11.7 7.15 11.68 7.18 11.65 7.21C11.62 7.23 11.58 7.25 11.54 7.26C11.51 7.27 11.47 7.27 11.43 7.27C11.39 7.27 11.35 7.25 11.32 7.23C11.28 7.22 11.25 7.19 11.23 7.16C11.21 7.13 11.19 7.09 11.18 7.06C11.16 7.02 11.16 6.98 11.17 6.94C11.18 6.85 11.18 6.76 11.18 6.67C11.18 6.03 10.93 5.42 10.48 4.97C10.04 4.52 9.43 4.27 8.8 4.27ZM10.58 6.67C10.58 6.75 10.54 6.82 10.49 6.87C10.43 6.92 10.36 6.95 10.28 6.95C10.21 6.95 10.14 6.92 10.08 6.87C10.03 6.82 10 6.75 9.99 6.67C9.99 6.35 9.86 6.05 9.64 5.82C9.42 5.6 9.12 5.47 8.8 5.47C8.76 5.48 8.72 5.47 8.68 5.46C8.64 5.44 8.61 5.42 8.58 5.39C8.55 5.37 8.52 5.33 8.5 5.29C8.49 5.25 8.48 5.21 8.48 5.17C8.48 5.13 8.49 5.09 8.5 5.05C8.52 5.01 8.55 4.98 8.58 4.95C8.61 4.92 8.64 4.9 8.68 4.89C8.72 4.87 8.76 4.87 8.8 4.87C9.28 4.87 9.73 5.06 10.06 5.4C10.39 5.74 10.58 6.19 10.58 6.67ZM12.84 7.65C12.83 7.69 12.82 7.73 12.8 7.76C12.78 7.8 12.75 7.83 12.71 7.85C12.68 7.87 12.64 7.89 12.6 7.89C12.56 7.9 12.52 7.9 12.48 7.89C12.44 7.88 12.4 7.86 12.37 7.84C12.34 7.81 12.31 7.78 12.29 7.75C12.27 7.71 12.26 7.67 12.25 7.63C12.25 7.59 12.25 7.55 12.26 7.51C12.33 7.23 12.36 6.96 12.36 6.68C12.36 5.72 11.99 4.81 11.32 4.13C10.65 3.45 9.75 3.08 8.8 3.08C8.71 3.08 8.62 3.08 8.53 3.08C8.49 3.08 8.45 3.07 8.41 3.06C8.38 3.05 8.34 3.03 8.31 3C8.25 2.95 8.22 2.88 8.21 2.8C8.2 2.72 8.23 2.64 8.28 2.58C8.33 2.52 8.41 2.48 8.48 2.48C8.59 2.47 8.7 2.46 8.8 2.46C9.91 2.47 10.96 2.91 11.74 3.7C12.52 4.49 12.95 5.56 12.95 6.67C12.95 7 12.91 7.33 12.84 7.65Z" fill="#105720" fill-opacity="1.000000" fill-rule="nonzero"/>
</svg>
