<svg width="24.000000" height="24.000000" viewBox="0 0 24 24" fill="none" xmlns="http://www.w3.org/2000/svg" xmlns:xlink="http://www.w3.org/1999/xlink">
	<desc>
			Created with Pixso.
	</desc>
	<defs>
		<filter id="filter_72_1407_dd" x="0.000000" y="0.000000" width="24.000000" height="24.000000" filterUnits="userSpaceOnUse" color-interpolation-filters="sRGB">
			<feFlood flood-opacity="0" result="BackgroundImageFix"/>
			<feColorMatrix in="SourceAlpha" type="matrix" values="0 0 0 0 0 0 0 0 0 0 0 0 0 0 0 0 0 0 127 0" result="hardAlpha"/>
			<feOffset dx="0" dy="4"/>
			<feGaussianBlur stdDeviation="1.33333"/>
			<feComposite in2="hardAlpha" operator="out" k2="-1" k3="1"/>
			<feColorMatrix type="matrix" values="0 0 0 0 0 0 0 0 0 0 0 0 0 0 0 0 0 0 0.25 0"/>
			<feBlend mode="normal" in2="BackgroundImageFix" result="effect_dropShadow_1"/>
			<feBlend mode="normal" in="SourceGraphic" in2="effect_dropShadow_1" result="shape"/>
		</filter>
	</defs>
	<g filter="url(#filter_72_1407_dd)">
		<path id="Icon" d="M11.99 0C10.52 0 9.07 0.4 7.82 1.17C6.56 1.94 5.54 3.04 4.87 4.36C4.2 5.67 3.91 7.14 4.02 8.61C4.13 10.08 4.65 11.49 5.51 12.68L4.51 15.66L7.59 14.67C8.63 15.36 9.82 15.79 11.06 15.94C12.3 16.09 13.55 15.94 14.73 15.52C15.9 15.09 16.95 14.4 17.81 13.49C18.67 12.58 19.3 11.49 19.66 10.29C20.02 9.1 20.09 7.84 19.87 6.61C19.66 5.38 19.16 4.22 18.41 3.22C17.67 2.22 16.7 1.4 15.58 0.84C14.47 0.29 13.24 -0.01 11.99 0ZM16.24 11.31L15.39 12.16C14.5 13.06 12.12 12.07 10.01 9.96C7.91 7.85 6.96 5.48 7.82 4.6L8.67 3.74C8.83 3.59 9.05 3.51 9.27 3.51C9.5 3.51 9.71 3.59 9.88 3.74L11.13 5C11.24 5.09 11.31 5.22 11.35 5.36C11.39 5.49 11.4 5.64 11.37 5.78C11.33 5.92 11.27 6.05 11.17 6.15C11.08 6.26 10.95 6.34 10.82 6.38C10.62 6.45 10.45 6.58 10.35 6.77C10.25 6.95 10.23 7.17 10.28 7.37C10.5 8.31 11.72 9.48 12.61 9.7C12.81 9.74 13.02 9.71 13.2 9.61C13.38 9.51 13.52 9.35 13.59 9.16C13.64 9.02 13.72 8.9 13.82 8.8C13.93 8.7 14.06 8.63 14.2 8.6C14.34 8.57 14.49 8.58 14.63 8.62C14.77 8.66 14.89 8.74 14.99 8.84L16.25 10.1C16.4 10.26 16.48 10.48 16.48 10.7C16.48 10.93 16.39 11.14 16.24 11.31Z" fill="#105720" fill-opacity="1.000000" fill-rule="nonzero"/>
	</g>
</svg>
